<svg width="100" height="100" viewBox="0 0 100 100" fill="none" xmlns="http://www.w3.org/2000/svg">
<path d="M8.33398 87.5C8.33363 81.0847 10.1845 74.8055 13.6646 69.4162C17.1446 64.0268 22.106 59.7561 27.9531 57.1167C33.8003 54.4773 40.285 53.5812 46.6288 54.5361C52.9727 55.491 58.9062 58.2563 63.7173 62.5" stroke="#58C87E" stroke-width="5" stroke-linecap="round" stroke-linejoin="round"/>
<path d="M41.6673 54.1667C53.1733 54.1667 62.5007 44.8393 62.5007 33.3333C62.5007 21.8274 53.1733 12.5 41.6673 12.5C30.1614 12.5 20.834 21.8274 20.834 33.3333C20.834 44.8393 30.1614 54.1667 41.6673 54.1667Z" stroke="#58C87E" stroke-width="5" stroke-linecap="round" stroke-linejoin="round"/>
<rect x="58.5" y="58.5" width="41" height="40" rx="20" fill="#58C87E" stroke="#58C87E"/>
<path d="M66.666 79.1666L74.9993 87.4999L91.666 70.8333" stroke="white" stroke-width="5" stroke-linecap="round" stroke-linejoin="round"/>
</svg>
