<svg width="16" height="22" viewBox="0 0 16 22" fill="none" xmlns="http://www.w3.org/2000/svg">
<rect x="1.5" y="0.5" width="13" height="21" rx="6.5" fill="#EDF1FE"/>
<rect x="1.5" y="0.5" width="13" height="21" rx="6.5" stroke="#EDF1FE"/>
<mask id="path-2-inside-1_1_23297" fill="white">
<path d="M9.1856 6.34796C9.01893 6.38129 8.8516 6.4653 8.75027 6.61863L6.09295 10.6186C5.94428 10.8426 5.94428 11.1446 6.09295 11.3686L8.75027 15.3686C8.9536 15.6746 9.37893 15.7606 9.68426 15.556C9.98893 15.352 10.0743 14.9246 9.87093 14.6186L7.46294 10.9933L9.87093 7.36863C10.0743 7.06196 9.98893 6.63529 9.68426 6.43129C9.5316 6.32863 9.35226 6.31396 9.1856 6.34796Z"/>
</mask>
<path d="M9.1856 6.34796L9.47977 7.81884L9.48542 7.81769L9.1856 6.34796ZM8.75027 6.61863L9.99969 7.44866L10.0017 7.44565L8.75027 6.61863ZM6.09295 10.6186L4.84352 9.7886L4.84316 9.78915L6.09295 10.6186ZM6.09295 11.3686L4.84315 12.1981L4.84352 12.1987L6.09295 11.3686ZM8.75027 15.3686L7.50085 16.1986L7.50094 16.1988L8.75027 15.3686ZM9.68426 15.556L8.8497 14.3096L8.84908 14.31L9.68426 15.556ZM9.87093 14.6186L8.62144 15.4485L8.6216 15.4488L9.87093 14.6186ZM7.46294 10.9933L6.21352 10.1633L5.66215 10.9932L6.21345 11.8232L7.46294 10.9933ZM9.87093 7.36863L11.1203 8.19866L11.1211 8.19754L9.87093 7.36863ZM9.68426 6.43129L8.8472 7.67602L8.8497 7.67769L9.68426 6.43129ZM9.1856 6.34796L8.89142 4.87709C8.46961 4.96145 7.88733 5.20378 7.49885 5.79161L8.75027 6.61863L10.0017 7.44565C9.81587 7.72682 9.56825 7.80114 9.47977 7.81883L9.1856 6.34796ZM8.75027 6.61863L7.50085 5.7886L4.84352 9.7886L6.09295 10.6186L7.34237 11.4487L9.99969 7.44866L8.75027 6.61863ZM6.09295 10.6186L4.84316 9.78915C4.36088 10.5158 4.36088 11.4714 4.84316 12.1981L6.09295 11.3686L7.34274 10.5392C7.52768 10.8178 7.52768 11.1694 7.34274 11.4481L6.09295 10.6186ZM6.09295 11.3686L4.84352 12.1987L7.50085 16.1986L8.75027 15.3686L9.99969 14.5386L7.34237 10.5386L6.09295 11.3686ZM8.75027 15.3686L7.50094 16.1988C8.16163 17.1931 9.52039 17.4716 10.5195 16.8019L9.68426 15.556L8.84908 14.31C9.23747 14.0496 9.74556 14.1562 9.9996 14.5385L8.75027 15.3686ZM9.68426 15.556L10.5188 16.8023C11.5111 16.1379 11.7803 14.7818 11.1203 13.7885L9.87093 14.6186L8.6216 15.4488C8.36822 15.0675 8.46676 14.566 8.8497 14.3096L9.68426 15.556ZM9.87093 14.6186L11.1204 13.7887L8.71242 10.1634L7.46294 10.9933L6.21345 11.8232L8.62144 15.4485L9.87093 14.6186ZM7.46294 10.9933L8.71235 11.8233L11.1203 8.19866L9.87093 7.36863L8.62151 6.5386L6.21352 10.1633L7.46294 10.9933ZM9.87093 7.36863L11.1211 8.19754C11.7795 7.20456 11.5116 5.84962 10.5188 5.1849L9.68426 6.43129L8.8497 7.67769C8.46629 7.42097 8.36904 6.91937 8.62077 6.53972L9.87093 7.36863ZM9.68426 6.43129L10.5213 5.18657C9.94768 4.8008 9.32933 4.78775 8.88577 4.87823L9.1856 6.34796L9.48542 7.81769C9.3752 7.84018 9.11552 7.85645 8.8472 7.67601L9.68426 6.43129Z" fill="#3652E0" mask="url(#path-2-inside-1_1_23297)"/>
</svg>
