<svg width="43" height="42" viewBox="0 0 43 42" fill="none" xmlns="http://www.w3.org/2000/svg">
<circle cx="21.5" cy="21" r="21" fill="#EDF1FE"/>
<path d="M16.5762 11.1465C13.2538 11.1465 10.5605 13.8393 10.5605 17.1621C10.5605 20.6446 12.5441 23.9302 15.8242 26.9381C16.9438 27.964 18.1492 28.8642 19.3447 29.6724C19.7637 29.9546 20.1556 30.2106 20.5069 30.4239C20.721 30.554 20.8622 30.6481 20.9512 30.6973C21.2815 30.8811 21.7146 30.8811 22.0449 30.6973C22.1338 30.6481 22.275 30.554 22.4892 30.4239C22.8405 30.2106 23.2324 29.9546 23.6514 29.6724C24.8469 28.8642 26.0523 27.964 27.1719 26.9381C30.452 23.9302 32.4355 20.6446 32.4355 17.1621C32.4355 13.8393 29.7423 11.1465 26.4199 11.1465C24.533 11.1465 22.6907 12.1746 21.5322 13.6753C20.4025 12.1484 18.5667 11.1465 16.5762 11.1465Z" fill="#403C89"/>
</svg>
