<svg width="43" height="42" viewBox="0 0 43 42" fill="none" xmlns="http://www.w3.org/2000/svg">
<circle cx="21.5" cy="21" r="21" fill="#EDF1FE"/>
<path d="M31.7083 19.2476H30.724L28.1919 13.7726C28.0773 13.5249 27.8905 13.3145 27.654 13.1668C27.4174 13.0191 27.1414 12.9404 26.8594 12.9404H16.1406C15.8586 12.9404 15.5826 13.0191 15.346 13.1668C15.1095 13.3145 14.9227 13.5249 14.8081 13.7726L12.276 19.2476H11.2917C11.0983 19.2476 10.9128 19.3215 10.7761 19.4529C10.6393 19.5843 10.5625 19.7626 10.5625 19.9484C10.5625 20.1343 10.6393 20.3126 10.7761 20.444C10.9128 20.5754 11.0983 20.6492 11.2917 20.6492H12.0208V27.6572C12.0208 28.029 12.1745 28.3855 12.448 28.6483C12.7215 28.9112 13.0924 29.0589 13.4792 29.0589H15.6667C16.0534 29.0589 16.4244 28.9112 16.6979 28.6483C16.9714 28.3855 17.125 28.029 17.125 27.6572V26.2556H25.875V27.6572C25.875 28.029 26.0286 28.3855 26.3021 28.6483C26.5756 28.9112 26.9466 29.0589 27.3333 29.0589H29.5208C29.9076 29.0589 30.2785 28.9112 30.552 28.6483C30.8255 28.3855 30.9792 28.029 30.9792 27.6572V20.6492H31.7083C31.9017 20.6492 32.0872 20.5754 32.2239 20.444C32.3607 20.3126 32.4375 20.1343 32.4375 19.9484C32.4375 19.7626 32.3607 19.5843 32.2239 19.4529C32.0872 19.3215 31.9017 19.2476 31.7083 19.2476Z" fill="#403C89"/>
</svg>
