<svg width="43" height="42" viewBox="0 0 43 42" fill="none" xmlns="http://www.w3.org/2000/svg">
<circle cx="21.5" cy="21" r="21" fill="#EDF1FE"/>
<path d="M21.5 22.0938C25.1244 22.0938 28.0625 23.5628 28.0625 25.375C28.0625 27.1872 25.1244 28.6562 21.5 28.6562C17.8756 28.6562 14.9375 27.1872 14.9375 25.375C14.9375 23.5628 17.8756 22.0938 21.5 22.0938ZM15.3545 22.1143C14.074 22.9825 13.2969 24.1245 13.2969 25.375C13.2969 26.0839 13.5464 26.7582 13.9961 27.3672C11.9836 26.9635 10.5625 25.9787 10.5625 24.8281C10.5626 23.4326 12.6536 22.2809 15.3545 22.1143ZM27.6455 22.1143C30.3465 22.2809 32.4374 23.4326 32.4375 24.8281C32.4375 25.9787 31.0164 26.9635 29.0039 27.3672C29.4536 26.7582 29.7031 26.084 29.7031 25.375C29.7031 24.1245 28.9261 22.9825 27.6455 22.1143ZM16.0312 15.5312C16.2567 15.5312 16.4741 15.5656 16.6787 15.6289C16.6126 15.9506 16.5781 16.2838 16.5781 16.625C16.5781 17.6535 16.8941 18.6088 17.4336 19.3984C17.054 19.7157 16.5647 19.9062 16.0312 19.9062C14.8231 19.9062 13.8438 18.9269 13.8438 17.7188C13.8438 16.5106 14.8231 15.5312 16.0312 15.5312ZM21.5 13.3438C23.3122 13.3438 24.7812 14.8128 24.7812 16.625C24.7812 18.4372 23.3122 19.9062 21.5 19.9062C19.6878 19.9062 18.2188 18.4372 18.2188 16.625C18.2188 14.8128 19.6878 13.3438 21.5 13.3438ZM26.9688 15.5312C28.1769 15.5313 29.1562 16.5106 29.1562 17.7188C29.1562 18.9269 28.1769 19.9062 26.9688 19.9062C26.4353 19.9062 25.946 19.7157 25.5664 19.3984C26.1059 18.6088 26.4219 17.6535 26.4219 16.625C26.4219 16.2838 26.3874 15.9506 26.3213 15.6289C26.5259 15.5656 26.7433 15.5312 26.9688 15.5312Z" fill="#403C89"/>
</svg>
