<svg width="43" height="42" viewBox="0 0 43 42" fill="none" xmlns="http://www.w3.org/2000/svg">
<circle cx="21.5" cy="21" r="21" fill="#EDF1FE"/>
<path d="M19.3125 22.0938C23.5409 22.0938 26.9688 24.0525 26.9688 26.4688C26.9688 28.885 23.5409 30.8438 19.3125 30.8438C15.0841 30.8438 11.6562 28.885 11.6562 26.4688C11.6562 24.0525 15.0841 22.0938 19.3125 22.0938ZM28.0625 15.8047C28.5155 15.8047 28.8828 16.172 28.8828 16.625V17.9922H30.25C30.703 17.9922 31.0703 18.3595 31.0703 18.8125C31.0703 19.2655 30.703 19.6328 30.25 19.6328H28.8828V21C28.8828 21.453 28.5155 21.8203 28.0625 21.8203C27.6095 21.8203 27.2422 21.453 27.2422 21V19.6328H25.875C25.422 19.6328 25.0547 19.2655 25.0547 18.8125C25.0547 18.3595 25.422 17.9922 25.875 17.9922H27.2422V16.625C27.2422 16.172 27.6095 15.8047 28.0625 15.8047ZM19.3125 11.1562C21.7287 11.1562 23.6875 13.115 23.6875 15.5312C23.6875 17.9475 21.7287 19.9062 19.3125 19.9062C16.8963 19.9062 14.9375 17.9475 14.9375 15.5312C14.9375 13.115 16.8963 11.1562 19.3125 11.1562Z" fill="#403C89"/>
</svg>
