<svg width="16" height="22" viewBox="0 0 16 22" fill="none" xmlns="http://www.w3.org/2000/svg">
  <g transform="scale(-1,1) translate(-16,0)">
    <rect x="1.5" y="0.5" width="13" height="21" rx="6.5" fill="#403C89"/>
    <rect x="1.5" y="0.5" width="13" height="21" rx="6.5" stroke="#EDF1FE"/>
    <mask id="path-2-inside-1_398_3377" fill="white">
      <path d="M9.18462 6.34796C9.01796 6.38129 8.85062 6.4653 8.74929 6.61863L6.09197 10.6186C5.9433 10.8426 5.9433 11.1446 6.09197 11.3686L8.74929 15.3686C8.95262 15.6746 9.37796 15.7606 9.68329 15.556C9.98795 15.352 10.0733 14.9246 9.86995 14.6186L7.46196 10.9933L9.86995 7.36863C10.0733 7.06196 9.98795 6.63529 9.68329 6.43129C9.53062 6.32863 9.35129 6.31396 9.18462 6.34796Z"/>
    </mask>
    <path d="M9.18462 6.34796L9.4788 7.81884L9.48445 7.81769L9.18462 6.34796ZM8.74929 6.61863L9.99871 7.44866L10.0007 7.44565L8.74929 6.61863ZM6.09197 10.6186L4.84255 9.7886L4.84218 9.78915L6.09197 10.6186ZM6.09197 11.3686L4.84218 12.1981L4.84255 12.1987L6.09197 11.3686ZM8.74929 15.3686L7.49987 16.1986L7.49996 16.1988L8.74929 15.3686ZM9.68329 15.556L8.84872 14.3096L8.8481 14.31L9.68329 15.556ZM9.86995 14.6186L8.62047 15.4485L8.62062 15.4488L9.86995 14.6186ZM7.46196 10.9933L6.21254 10.1633L5.66117 10.9932L6.21247 11.8232L7.46196 10.9933ZM9.86995 7.36863L11.1194 8.19866L11.1201 8.19754L9.86995 7.36863ZM9.68329 6.43129L8.84622 7.67602L8.84872 7.67769L9.68329 6.43129ZM8.89045 4.87709C8.46864 4.96145 7.88635 5.20378 7.49788 5.79161L10.0007 7.44565C9.81489 7.72682 9.56727 7.80114 9.4788 7.81883L8.89045 4.87709ZM7.49987 5.7886L4.84255 9.7886L7.34139 11.4487L9.99871 7.44866L7.49987 5.7886ZM4.84218 9.78915C4.3599 10.5158 4.3599 11.4714 4.84218 12.1981L7.34176 10.5392C7.52671 10.8178 7.52671 11.1694 7.34176 11.4481L4.84218 9.78915ZM4.84255 12.1987L7.49987 16.1986L9.99871 14.5386L7.34139 10.5386L4.84255 12.1987ZM7.49996 16.1988C8.16066 17.1931 9.51941 17.4716 10.5185 16.8019L8.8481 14.31C9.2365 14.0496 9.74459 14.1562 9.99862 14.5385L7.49996 16.1988ZM10.5179 16.8023C11.5101 16.1379 11.7793 14.7818 11.1193 13.7885L8.62062 15.4488C8.36725 15.0675 8.46579 14.566 8.84872 14.3096L10.5179 16.8023ZM11.1194 13.7887L8.71145 10.1634L6.21247 11.8232L8.62047 15.4485L11.1194 13.7887ZM8.71138 11.8233L11.1194 8.19866L8.62053 6.5386L6.21254 10.1633L8.71138 11.8233ZM11.1201 8.19754C11.7785 7.20456 11.5106 5.84962 10.5179 5.1849L8.84872 7.67769C8.46532 7.42097 8.36806 6.91937 8.61979 6.53972L11.1201 8.19754ZM10.5203 5.18657C9.9467 4.8008 9.32835 4.78775 8.8848 4.87823L9.48445 7.81769C9.37422 7.84018 9.11454 7.85645 8.84623 7.67601L10.5203 5.18657Z" fill="white" mask="url(#path-2-inside-1_398_3377)"/>
  </g>
</svg>
