<svg width="15" height="10" viewBox="0 0 15 10" fill="none" xmlns="http://www.w3.org/2000/svg">
<path fill-rule="evenodd" clip-rule="evenodd" d="M0 0.75C0 0.335786 0.335786 0 0.75 0H13.75C14.1642 0 14.5 0.335786 14.5 0.75C14.5 1.16421 14.1642 1.5 13.75 1.5H0.75C0.335786 1.5 0 1.16421 0 0.75ZM2 4.75C2 4.33579 2.33579 4 2.75 4H12.75C13.1642 4 13.5 4.33579 13.5 4.75C13.5 5.16421 13.1642 5.5 12.75 5.5H2.75C2.33579 5.5 2 5.16421 2 4.75ZM4.75 8C4.33579 8 4 8.33579 4 8.75C4 9.16421 4.33579 9.5 4.75 9.5H9.75C10.1642 9.5 10.5 9.16421 10.5 8.75C10.5 8.33579 10.1642 8 9.75 8H4.75Z" fill="#AFAFAF"/>
</svg>
