<svg width="42" height="42" viewBox="0 0 42 42" fill="none" xmlns="http://www.w3.org/2000/svg">
<path d="M0 9.76437L0 32.2356C0 37.6283 4.37165 42 9.76437 42H32.2356C37.6283 42 42 37.6283 42 32.2356V9.76437C42 4.37165 37.6283 0 32.2356 0H9.76437C4.37165 0 0 4.37165 0 9.76437Z" fill="#403C89"/>
<path d="M29.9141 17.4216C29.4506 16.2395 28.741 15.157 27.8023 14.2028C26.8636 13.2498 25.6879 12.4794 24.3089 11.9148C22.9377 11.3542 21.3231 11.0693 19.5091 11.0693H14.115C13.3679 11.0693 12.692 11.3283 12.1598 11.8164C11.5979 12.3344 11.2871 13.0323 11.2871 13.7819V28.2047C11.2871 28.9674 11.6056 29.6679 12.1805 30.1767C12.7088 30.6454 13.3782 30.894 14.1137 30.894H19.5078C21.3231 30.894 22.9377 30.6092 24.3076 30.0485C25.6866 29.484 26.8623 28.7149 27.801 27.7606C28.7384 26.8076 29.4493 25.7252 29.9128 24.5417C30.3699 23.3751 30.6017 22.1774 30.6017 20.981C30.6017 19.7846 30.3699 18.587 29.9128 17.419L29.9141 17.4216ZM24.3024 23.3803C23.9049 24.0044 23.3624 24.4977 22.6477 24.8823C22.5726 24.9237 22.4949 24.9626 22.4159 25.0014C21.5419 25.4222 20.4647 25.6358 19.2152 25.6358H16.97V16.3301H19.2152C20.4647 16.3301 21.5419 16.5438 22.4159 16.9646C23.2472 17.366 23.8635 17.8955 24.3024 18.5844C24.7375 19.268 24.9486 20.0527 24.9486 20.9823C24.9486 21.912 24.7375 22.6966 24.3024 23.3803Z" fill="white"/>
<path d="M16.9687 16.3296V22.0112H11.2871C11.2871 18.8752 13.8327 16.3296 16.9687 16.3296Z" fill="url(#paint0_linear_159_4165)"/>
<path d="M22.648 24.8818V30.5634C21.0787 30.5634 19.6583 29.9277 18.6302 28.8996C17.7705 28.0386 17.1839 26.903 17.0156 25.6354H19.2116C20.4624 25.6354 21.5384 25.4218 22.4124 25.001C22.4913 24.9621 22.569 24.9233 22.6441 24.8818H22.648Z" fill="url(#paint1_linear_159_4165)"/>
<defs>
<linearGradient id="paint0_linear_159_4165" x1="17.035" y1="21.9275" x2="17.035" y2="16.3917" gradientUnits="userSpaceOnUse">
<stop stop-color="white" stop-opacity="0"/>
<stop offset="1" stop-color="#3D5BF6"/>
</linearGradient>
<linearGradient id="paint1_linear_159_4165" x1="22.5681" y1="26.5053" x2="17.0323" y2="26.5053" gradientUnits="userSpaceOnUse">
<stop stop-color="white" stop-opacity="0"/>
<stop offset="1" stop-color="#3D5BF6"/>
</linearGradient>
</defs>
</svg>