<svg width="42" height="42" viewBox="0 0 42 42" fill="none" xmlns="http://www.w3.org/2000/svg">
<path d="M0 9.76437L0 32.2356C0 37.6283 4.37157 42 9.76417 42H32.235C37.6276 42 41.9992 37.6283 41.9992 32.2356V9.76437C41.9992 4.37165 37.6276 0 32.235 0H9.76417C4.37157 0 0 4.37165 0 9.76437Z" fill="white"/>
<path d="M29.9157 17.4246C29.4522 16.2424 28.7426 15.16 27.8039 14.2057C26.8652 13.2527 25.6895 12.4823 24.3106 11.9178C22.9394 11.3571 21.3249 11.0723 19.5109 11.0723H14.1169C13.3698 11.0723 12.6939 11.3312 12.1617 11.8194C11.5998 12.3373 11.2891 13.0352 11.2891 13.7849V28.2077C11.2891 28.9703 11.6076 29.6708 12.1825 30.1796C12.7107 30.6484 13.3801 30.897 14.1156 30.897H19.5096C21.3249 30.897 22.9394 30.6121 24.3093 30.0515C25.6883 29.4869 26.8639 28.7178 27.8026 27.7635C28.74 26.8106 29.4509 25.7281 29.9144 24.5447C30.3715 23.3781 30.6032 22.1804 30.6032 20.984C30.6032 19.7876 30.3715 18.5899 29.9144 17.422L29.9157 17.4246ZM24.3041 23.3832C23.9066 24.0073 23.3641 24.5006 22.6494 24.8852C22.5743 24.9266 22.4966 24.9655 22.4177 25.0043C21.5437 25.4251 20.4664 25.6388 19.217 25.6388H16.9718V16.333H19.217C20.4664 16.333 21.5437 16.5467 22.4177 16.9675C23.2489 17.3689 23.8652 17.8985 24.3041 18.5873C24.7392 19.2709 24.9502 20.0556 24.9502 20.9853C24.9502 21.9149 24.7392 22.6996 24.3041 23.3832Z" fill="#403C89"/>
<path d="M16.9725 16.334V22.0156H11.291C11.291 18.8796 13.8365 16.334 16.9725 16.334Z" fill="#0016B5"/>
<path d="M22.6538 24.8862V30.5678C21.0845 30.5678 19.6641 29.9321 18.6361 28.904C17.7763 28.043 17.1898 26.9074 17.0215 25.6398H19.2174C20.4682 25.6398 21.5441 25.4262 22.4181 25.0054C22.4971 24.9665 22.5748 24.9277 22.6499 24.8862H22.6538Z" fill="url(#paint0_linear_398_3368)"/>
<defs>
<linearGradient id="paint0_linear_398_3368" x1="22.5738" y1="26.5097" x2="17.0381" y2="26.5097" gradientUnits="userSpaceOnUse">
<stop stop-color="#3D5BF6"/>
<stop offset="1" stop-color="#001DB5"/>
</linearGradient>
</defs>
</svg>
