<svg width="42" height="52" viewBox="0 0 42 52" fill="none" xmlns="http://www.w3.org/2000/svg">
<path d="M0 12.1716L0 39.8285C0 46.4657 4.37165 51.8462 9.76437 51.8462H32.2356C37.6283 51.8462 42 46.4657 42 39.8285V12.1716C42 5.53438 37.6283 0.153881 32.2356 0.153881H9.76437C4.37165 0.153881 0 5.53438 0 12.1716Z" fill="#403C89"/>
<path d="M29.9141 21.596C29.4506 20.1411 28.741 18.8088 27.8023 17.6343C26.8636 16.4615 25.6879 15.5133 24.3089 14.8185C22.9377 14.1284 21.3231 13.7778 19.5091 13.7778H14.115C13.3679 13.7778 12.692 14.0966 12.1598 14.6973C11.5979 15.3348 11.2871 16.1937 11.2871 17.1164V34.8675C11.2871 35.8062 11.6056 36.6683 12.1805 37.2946C12.7088 37.8715 13.3782 38.1775 14.1137 38.1775H19.5078C21.3231 38.1775 22.9377 37.8269 24.3076 37.1368C25.6866 36.442 26.8623 35.4954 27.801 34.3209C28.7384 33.1481 29.4493 31.8158 29.9128 30.3593C30.3699 28.9234 30.6017 27.4493 30.6017 25.9768C30.6017 24.5044 30.3699 23.0303 29.9128 21.5929L29.9141 21.596ZM24.3024 28.9298C23.9049 29.6979 23.3624 30.3051 22.6477 30.7784C22.5726 30.8294 22.4949 30.8772 22.4159 30.925C21.5419 31.4429 20.4647 31.7058 19.2152 31.7058H16.97V20.2526H19.2152C20.4647 20.2526 21.5419 20.5156 22.4159 21.0335C23.2472 21.5275 23.8635 22.1793 24.3024 23.0271C24.7375 23.8685 24.9486 24.8342 24.9486 25.9784C24.9486 27.1226 24.7375 28.0884 24.3024 28.9298Z" fill="white"/>
<path d="M16.9687 20.252V27.2447H11.2871C11.2871 23.385 13.8327 20.252 16.9687 20.252Z" fill="url(#paint0_linear_398_3866)"/>
<path d="M22.648 30.7778V37.7706C21.0787 37.7706 19.6583 36.9881 18.6302 35.7228C17.7705 34.663 17.1839 33.2654 17.0156 31.7053H19.2116C20.4624 31.7053 21.5384 31.4424 22.4124 30.9244C22.4913 30.8766 22.569 30.8288 22.6441 30.7778H22.648Z" fill="url(#paint1_linear_398_3866)"/>
<defs>
<linearGradient id="paint0_linear_398_3866" x1="17.035" y1="27.1417" x2="17.035" y2="20.3283" gradientUnits="userSpaceOnUse">
<stop stop-color="white" stop-opacity="0"/>
<stop offset="1" stop-color="#3D5BF6"/>
</linearGradient>
<linearGradient id="paint1_linear_398_3866" x1="22.5681" y1="32.776" x2="17.0323" y2="32.776" gradientUnits="userSpaceOnUse">
<stop stop-color="white" stop-opacity="0"/>
<stop offset="1" stop-color="#3D5BF6"/>
</linearGradient>
</defs>
</svg>
