<svg width="28" height="29" viewBox="0 0 28 29" fill="none" xmlns="http://www.w3.org/2000/svg">
<path fill-rule="evenodd" clip-rule="evenodd" d="M7 9.83301C7 9.34976 7.39175 8.95801 7.875 8.95801H13.7083C14.1916 8.95801 14.5833 9.34976 14.5833 9.83301C14.5833 10.3163 14.1916 10.708 13.7083 10.708H7.875C7.39175 10.708 7 10.3163 7 9.83301ZM7 14.4997C7 14.0164 7.39175 13.6247 7.875 13.6247H19.5417C20.0249 13.6247 20.4167 14.0164 20.4167 14.4997C20.4167 14.9829 20.0249 15.3747 19.5417 15.3747H7.875C7.39175 15.3747 7 14.9829 7 14.4997ZM7.875 18.2913C7.39175 18.2913 7 18.6831 7 19.1663C7 19.6496 7.39175 20.0413 7.875 20.0413H13.7083C14.1916 20.0413 14.5833 19.6496 14.5833 19.1663C14.5833 18.6831 14.1916 18.2913 13.7083 18.2913H7.875Z" fill="#192252"/>
</svg>
