<svg width="28" height="29" viewBox="0 0 28 29" fill="none" xmlns="http://www.w3.org/2000/svg">
<path d="M13.708 18.2915C14.1911 18.2915 14.5828 18.6834 14.583 19.1665C14.583 19.6498 14.1913 20.0415 13.708 20.0415H7.875C7.39175 20.0415 7 19.6498 7 19.1665C7.00018 18.6834 7.39186 18.2915 7.875 18.2915H13.708ZM19.542 13.6255C20.0251 13.6257 20.417 14.0173 20.417 14.5005C20.4168 14.9835 20.025 15.3753 19.542 15.3755H7.875C7.39186 15.3755 7.00018 14.9836 7 14.5005C7 14.0172 7.39175 13.6255 7.875 13.6255H19.542ZM13.708 8.9585C14.1913 8.9585 14.583 9.35025 14.583 9.8335C14.583 10.3167 14.1913 10.7085 13.708 10.7085H7.875C7.39175 10.7085 7 10.3167 7 9.8335C7 9.35025 7.39175 8.9585 7.875 8.9585H13.708Z" fill="#192252"/>
</svg>
