<svg id="Слой_1" data-name="Слой 1" xmlns="http://www.w3.org/2000/svg" viewBox="0 0 21.5 20.67"><defs><style>.cls-1{fill:#fff;}</style></defs><path class="cls-1" d="M20,8c0,.41,0,.5,0,.75H4V7.5l0-.25L4.4,5.44c.36-1.75,1.11-3.36,4.09-3.36h7c3,0,3.73,1.61,4.09,3.36L20,7.25C20,7.5,20,7.59,20,8Z" transform="translate(-1.25 -2.08)"/><path class="cls-1" d="M22.18,13.66c-.15-1.65-.59-3.41-3.8-3.41H5.62C2.41,10.25,2,12,1.82,13.66l-.56,6.09A2.73,2.73,0,0,0,2,21.84,2.81,2.81,0,0,0,4,22.75H5.92a1.92,1.92,0,0,0,2.13-1.54l.2-.6c.23-.69.29-.86,1.19-.86h5.12c.9,0,.93.1,1.19.86l.2.6a1.92,1.92,0,0,0,2.13,1.54H20A2.82,2.82,0,0,0,22,21.84a2.73,2.73,0,0,0,.7-2.09ZM9,15.75H6a.75.75,0,0,1,0-1.5H9a.75.75,0,0,1,0,1.5Zm9,0H15a.75.75,0,0,1,0-1.5h3a.75.75,0,0,1,0,1.5Z" transform="translate(-1.25 -2.08)"/></svg>