<svg width="32" height="32" viewBox="0 0 32 32" fill="none" xmlns="http://www.w3.org/2000/svg">
<circle cx="16" cy="16" r="16" fill="#403C89"/>
<path d="M23.7771 14.6654H23.0271L21.098 10.4939C21.0107 10.3052 20.8683 10.1448 20.6881 10.0323C20.5079 9.91976 20.2976 9.85987 20.0827 9.85986H11.916C11.7011 9.85987 11.4908 9.91976 11.3106 10.0323C11.1304 10.1448 10.988 10.3052 10.9007 10.4939L8.97157 14.6654H8.22157C8.07423 14.6654 7.93292 14.7216 7.82873 14.8217C7.72455 14.9219 7.66602 15.0577 7.66602 15.1993C7.66602 15.3409 7.72455 15.4767 7.82873 15.5769C7.93292 15.677 8.07423 15.7332 8.22157 15.7332H8.77713V21.0727C8.77713 21.3559 8.89419 21.6275 9.10256 21.8278C9.31094 22.0281 9.59355 22.1406 9.88824 22.1406H11.5549C11.8496 22.1406 12.1322 22.0281 12.3406 21.8278C12.549 21.6275 12.666 21.3559 12.666 21.0727V20.0048H19.3327V21.0727C19.3327 21.3559 19.4497 21.6275 19.6581 21.8278C19.8665 22.0281 20.1491 22.1406 20.4438 22.1406H22.1105C22.4051 22.1406 22.6878 22.0281 22.8961 21.8278C23.1045 21.6275 23.2216 21.3559 23.2216 21.0727V15.7332H23.7771C23.9245 15.7332 24.0658 15.677 24.17 15.5769C24.2742 15.4767 24.3327 15.3409 24.3327 15.1993C24.3327 15.0577 24.2742 14.9219 24.17 14.8217C24.0658 14.7216 23.9245 14.6654 23.7771 14.6654Z" fill="white"/>
</svg>
