<svg width="48" height="48" viewBox="0 0 48 48" fill="none" xmlns="http://www.w3.org/2000/svg">
<circle cx="24" cy="24" r="23" fill="#F5F7FF" stroke="#0DCF89" stroke-width="2"/>
<path d="M33.3333 22.3974H32.4333L30.1183 17.3917C30.0136 17.1653 29.8427 16.9728 29.6265 16.8378C29.4102 16.7027 29.1579 16.6309 28.9 16.6309H19.1C18.8421 16.6309 18.5898 16.7027 18.3735 16.8378C18.1573 16.9728 17.9864 17.1653 17.8817 17.3917L15.5667 22.3974H14.6667C14.4899 22.3974 14.3203 22.465 14.1953 22.5851C14.0702 22.7053 14 22.8682 14 23.0382C14 23.2081 14.0702 23.3711 14.1953 23.4912C14.3203 23.6114 14.4899 23.6789 14.6667 23.6789H15.3333V30.0862C15.3333 30.4261 15.4738 30.752 15.7239 30.9924C15.9739 31.2327 16.313 31.3677 16.6667 31.3677H18.6667C19.0203 31.3677 19.3594 31.2327 19.6095 30.9924C19.8595 30.752 20 30.4261 20 30.0862V28.8048H28V30.0862C28 30.4261 28.1405 30.752 28.3905 30.9924C28.6406 31.2327 28.9797 31.3677 29.3333 31.3677H31.3333C31.687 31.3677 32.0261 31.2327 32.2761 30.9924C32.5262 30.752 32.6667 30.4261 32.6667 30.0862V23.6789H33.3333C33.5101 23.6789 33.6797 23.6114 33.8047 23.4912C33.9298 23.3711 34 23.2081 34 23.0382C34 22.8682 33.9298 22.7053 33.8047 22.5851C33.6797 22.465 33.5101 22.3974 33.3333 22.3974Z" fill="#403C89"/>
</svg>
