<svg width="32" height="33" viewBox="0 0 32 33" fill="none" xmlns="http://www.w3.org/2000/svg">
<circle cx="16" cy="16.5" r="16" fill="#0DCF89"/>
<path fill-rule="evenodd" clip-rule="evenodd" d="M18.5 16.9683H19.8188C20.038 16.2698 20.1667 15.5686 20.1667 14.8849C20.1667 10.2826 17.555 8.21826 14.3333 8.21826C11.1117 8.21826 8.5 10.2826 8.5 14.8849C8.5 17.6191 10.5588 20.634 12.2302 22.6311C13.0996 23.6698 14.4862 23.9003 15.5852 23.3226C15.5839 23.2879 15.5833 23.2532 15.5833 23.2183V19.8849C15.5833 18.2741 16.8892 16.9683 18.5 16.9683ZM14.3333 14.8849C15.2538 14.8849 16 14.1387 16 13.2183C16 12.2978 15.2538 11.5516 14.3333 11.5516C13.4129 11.5516 12.6667 12.2978 12.6667 13.2183C12.6667 14.1387 13.4129 14.8849 14.3333 14.8849ZM22.9778 20.956H23.2778C23.3367 20.956 23.3932 20.9789 23.4349 21.0197C23.4766 21.0605 23.5 21.1158 23.5 21.1734C23.5 21.2311 23.4766 21.2864 23.4349 21.3271C23.3932 21.3679 23.3367 21.3908 23.2778 21.3908H23.0556V23.5647C23.0556 23.68 23.0087 23.7906 22.9254 23.8722C22.842 23.9537 22.729 23.9995 22.6111 23.9995H21.9444C21.8266 23.9995 21.7135 23.9537 21.6302 23.8722C21.5468 23.7906 21.5 23.68 21.5 23.5647V23.1299H18.8333V23.5647C18.8333 23.68 18.7865 23.7906 18.7032 23.8722C18.6198 23.9537 18.5068 23.9995 18.3889 23.9995H17.7222C17.6043 23.9995 17.4913 23.9537 17.408 23.8722C17.3246 23.7906 17.2778 23.68 17.2778 23.5647V21.3908H17.0556C16.9966 21.3908 16.9401 21.3679 16.8984 21.3271C16.8567 21.2864 16.8333 21.2311 16.8333 21.1734C16.8333 21.1158 16.8567 21.0605 16.8984 21.0197C16.9401 20.9789 16.9966 20.956 17.0556 20.956H17.3556L18.1272 19.2577C18.1621 19.1808 18.2191 19.1155 18.2912 19.0697C18.3633 19.0239 18.4474 18.9995 18.5333 18.9995H21.8C21.886 18.9995 21.9701 19.0239 22.0422 19.0697C22.1142 19.1155 22.1712 19.1808 22.2061 19.2577L22.9778 20.956Z" fill="white"/>
</svg>
