<svg width="24" height="24" viewBox="0 0 24 24" fill="none" xmlns="http://www.w3.org/2000/svg">
  <path d="M15.51 2.83008H8.49C6 2.83008 5.45 4.07008 5.13 5.59008L4 11.0001H20L18.87 5.59008C18.55 4.07008 18 2.83008 15.51 2.83008Z" stroke="currentColor" stroke-width="1.5" stroke-linecap="round" stroke-linejoin="round"/>
  <path d="M5.62071 11C3.00071 11 2.71071 12.23 2.57071 13.73L2.01071 19.82C1.90071 20.99 2.84071 22 4.04071 22H5.92071C7.00071 22 7.15071 21.54 7.34071 20.97L7.54071 20.37C7.79071 19.62 8.00071 19 9.44071 19H14.5607C16.0007 19 16.1807 19.55 16.4607 20.37L16.6607 20.97C16.8507 21.54 17.0007 22 18.0807 22H19.9607C21.1607 22 22.1007 20.99 21.9907 19.82L21.4307 13.73C21.2907 12.23 21.0007 11 18.3807 11" stroke="currentColor" stroke-width="1.5" stroke-linecap="round" stroke-linejoin="round"/>
  <path d="M6 15H9" stroke="currentColor" stroke-width="1.5" stroke-linecap="round" stroke-linejoin="round"/>
  <path d="M15 15H18" stroke="currentColor" stroke-width="1.5" stroke-linecap="round" stroke-linejoin="round"/>
</svg>
    