<svg width="62" height="62" viewBox="0 0 62 62" fill="none" xmlns="http://www.w3.org/2000/svg">
<rect opacity="0.2" width="62" height="62" rx="31" fill="#403C89"/>
<rect x="10" y="10" width="42" height="42" rx="21" fill="#403C89"/>
<path d="M40.3333 29.3984H39.4333L37.1183 24.3927C37.0136 24.1662 36.8427 23.9738 36.6265 23.8388C36.4102 23.7037 36.1579 23.6318 35.9 23.6318H26.1C25.8421 23.6318 25.5898 23.7037 25.3735 23.8388C25.1573 23.9738 24.9864 24.1662 24.8817 24.3927L22.5667 29.3984H21.6667C21.4899 29.3984 21.3203 29.4659 21.1953 29.5861C21.0702 29.7063 21 29.8692 21 30.0392C21 30.2091 21.0702 30.3721 21.1953 30.4922C21.3203 30.6124 21.4899 30.6799 21.6667 30.6799H22.3333V37.0872C22.3333 37.4271 22.4738 37.753 22.7239 37.9933C22.9739 38.2337 23.313 38.3687 23.6667 38.3687H25.6667C26.0203 38.3687 26.3594 38.2337 26.6095 37.9933C26.8595 37.753 27 37.4271 27 37.0872V35.8057H35V37.0872C35 37.4271 35.1405 37.753 35.3905 37.9933C35.6406 38.2337 35.9797 38.3687 36.3333 38.3687H38.3333C38.687 38.3687 39.0261 38.2337 39.2761 37.9933C39.5262 37.753 39.6667 37.4271 39.6667 37.0872V30.6799H40.3333C40.5101 30.6799 40.6797 30.6124 40.8047 30.4922C40.9298 30.3721 41 30.2091 41 30.0392C41 29.8692 40.9298 29.7063 40.8047 29.5861C40.6797 29.4659 40.5101 29.3984 40.3333 29.3984Z" fill="white"/>
</svg>
